<?xml version="1.0" standalone="no"?>
<!DOCTYPE svg PUBLIC "-//W3C//DTD SVG 1.1//EN" "http://www.w3.org/Graphics/SVG/1.1/DTD/svg11.dtd" >
<svg xmlns="http://www.w3.org/2000/svg">
<metadata>
Created by FontForge 20120731 at Tue Jul 25 19:39:16 2017
 By admin
</metadata>
<defs>
<font id="iconfont" horiz-adv-x="1024" >
  <font-face 
    font-family="iconfont"
    font-weight="500"
    font-stretch="normal"
    units-per-em="1024"
    panose-1="2 0 6 3 0 0 0 0 0 0"
    ascent="896"
    descent="-128"
    x-height="792"
    bbox="0 -186 1223 896"
    underline-thickness="0"
    underline-position="0"
    unicode-range="U+0078-E846"
  />
<missing-glyph 
 />
    <glyph glyph-name=".notdef" 
 />
    <glyph glyph-name=".notdef" 
 />
    <glyph glyph-name=".null" horiz-adv-x="0" 
 />
    <glyph glyph-name="nonmarkingreturn" horiz-adv-x="341" 
 />
    <glyph glyph-name="x" unicode="x" horiz-adv-x="1001" 
d="M281 543q-27 -1 -53 -1h-83q-18 0 -36.5 -6t-32.5 -18.5t-23 -32t-9 -45.5v-76h912v41q0 16 -0.5 30t-0.5 18q0 13 -5 29t-17 29.5t-31.5 22.5t-49.5 9h-133v-97h-438v97zM955 310v-52q0 -23 0.5 -52t0.5 -58t-10.5 -47.5t-26 -30t-33 -16t-31.5 -4.5q-14 -1 -29.5 -0.5
t-29.5 0.5h-32l-45 128h-439l-44 -128h-29h-34q-20 0 -45 1q-25 0 -41 9.5t-25.5 23t-13.5 29.5t-4 30v167h911zM163 247q-12 0 -21 -8.5t-9 -21.5t9 -21.5t21 -8.5q13 0 22 8.5t9 21.5t-9 21.5t-22 8.5zM316 123q-8 -26 -14 -48q-5 -19 -10.5 -37t-7.5 -25t-3 -15t1 -14.5
t9.5 -10.5t21.5 -4h37h67h81h80h64h36q23 0 34 12t2 38q-5 13 -9.5 30.5t-9.5 34.5q-5 19 -11 39h-368zM336 498v228q0 11 2.5 23t10 21.5t20.5 15.5t34 6h188q31 0 51.5 -14.5t20.5 -52.5v-227h-327z" />
    <glyph glyph-name="bianji" unicode="&#xe60d;" horiz-adv-x="1000" 
d="M939.5 662q-11.5 12 -28.5 12t-28 -12l-396 -396q-12 -12 -12 -28.5t11.5 -28t28.5 -11.5t28 11l396 396q12 12 12 28.5t-11.5 28.5zM792.5 237q-16.5 0 -28 -11.5t-11.5 -27.5v-199q0 -16 -11.5 -27.5t-28.5 -11.5h-515q-16 0 -28 11.5t-12 27.5v635q0 16 12 27.5
t28 11.5h396q17 0 28.5 11.5t11.5 28t-11.5 28t-28.5 11.5h-436q-32 0 -55.5 -23t-23.5 -56v-713q0 -33 23.5 -56.5t55.5 -23.5h595q33 0 56 23.5t23 56.5v238q0 16 -11.5 27.5t-28 11.5z" />
    <glyph glyph-name="gerenzhongxin" unicode="&#xe625;" 
d="M711.5 186.5q-6.5 -8.5 -5 -19.5t9.5 -17q63 -49 97.5 -120.5t34.5 -152.5q0 -11 8 -18.5t18.5 -7.5t18 7.5t7.5 18.5q0 94 -39.5 176t-112.5 139q-8 6 -19 4.5t-17.5 -10zM150 -149q11 0 18.5 7.5t7.5 18.5q0 93 45 172t122.5 125t168.5 46q107 0 183 77t76 186
t-76 186.5t-183 77.5t-183 -77.5t-76 -186.5q0 -72 37 -134.5t99 -96.5q-118 -40 -191.5 -144t-73.5 -231q0 -11 7.5 -18.5t18.5 -7.5zM512.5 694q85.5 0 146 -62t60.5 -149t-60.5 -148.5t-146 -61.5t-146 61.5t-60.5 148.5t60.5 149t146 62z" />
    <glyph glyph-name="shijian" unicode="&#xe60f;" 
d="M512 818q-118 0 -218 -58t-158 -158t-58 -218t58 -218.5t158 -158.5t218 -58t218.5 58t158.5 158.5t58 218.5t-58 218t-158.5 158t-218.5 58zM730 336h-231q-7 0 -14 2q-22 10 -22 33v231q0 15 10.5 25.5t25.5 10.5t25.5 -10.5t10.5 -25.5v-195h195q14 0 24.5 -10.5
t10.5 -25t-10.5 -25t-24.5 -10.5z" />
    <glyph glyph-name="shezhi" unicode="&#xe610;" 
d="M960 339q0 12 -8.5 21t-21.5 9h-46q-14 0 -27 9.5t-17 23.5l-24 58q-7 12 -4.5 28t12.5 26l33 33q8 9 8 21.5t-8 20.5l-56 55q-8 9 -20.5 9t-21.5 -9l-33 -32q-10 -10 -26 -12.5t-28 4.5l-58 24q-14 4 -23.5 17t-9.5 27v46q0 13 -9 21.5t-21 8.5h-78q-12 0 -21 -8.5
t-9 -21.5v-46q0 -14 -9.5 -27t-23.5 -17l-58 -24q-12 -7 -28 -4.5t-26 12.5l-33 32q-9 9 -21.5 9t-20.5 -9l-55 -55q-9 -8 -9 -20.5t9 -21.5l32 -33q10 -10 12.5 -26t-4.5 -28l-24 -58q-4 -14 -17 -23.5t-27 -9.5h-46q-13 0 -21.5 -9t-8.5 -21v-78q0 -12 8.5 -21t21.5 -9h46
q14 0 27 -9.5t17 -23.5l24 -58q7 -12 4.5 -28t-12.5 -26l-33 -33q-8 -9 -8 -21.5t8 -20.5l56 -56q8 -8 20.5 -8t21.5 8l33 33q10 10 26 12.5t28 -4.5l58 -24q14 -4 23.5 -17t9.5 -27v-46q0 -13 9 -21.5t21 -8.5h78q12 0 21 8.5t9 21.5v46q0 14 9.5 27t23.5 17l58 24
q12 7 28 4.5t27 -12.5l32 -32q9 -9 21.5 -9t20.5 8l56 56q8 8 8 20.5t-8 21.5l-33 33q-10 10 -12.5 26t4.5 28l24 58q4 14 17 23.5t27 9.5h46q13 0 21.5 9t8.5 21v78v0zM685 300q0 -71 -50.5 -121.5t-122 -50.5t-122 50.5t-50.5 121.5t50.5 121.5t122 50.5t122 -50.5
t50.5 -121.5v0z" />
    <glyph glyph-name="icon47" unicode="&#xe611;" 
d="M512 -102l-63 61q-60 53 -94.5 83.5t-81.5 74.5t-73 73t-55.5 67t-44.5 68.5t-25 66t-10 70.5q0 101 71 170.5t175 69.5q57 0 110.5 -24.5t90.5 -67.5q37 43 90.5 67.5t110.5 24.5q104 0 175 -69.5t71 -170.5q0 -35 -10 -70.5t-25 -66t-44.5 -68.5t-55.5 -67t-73 -73
t-81.5 -74.5t-95.5 -83.5z" />
    <glyph glyph-name="xinfeng" unicode="&#xe612;" 
d="M683 343l245 243q12 -12 12 -29v-514q0 -16 -11 -28zM99 587q12 12 29 12l772 -1q15 0 27 -11l-414 -328zM96 15q-11 12 -11 28v514q0 17 12 29l244 -243zM512 188l128 112l287 -286q-11 -12 -27 -12h-775q-15 0 -27 12l286 286z" />
    <glyph glyph-name="gonglve" unicode="&#xe626;" 
d="M362 0l208 95v507l-208 -94v-508zM484 262l33 33q10 10 21 0q4 -4 4 -9.5t-2 -8.5l-2 -4l-33 -32q-10 -10 -20.5 0.5t-0.5 20.5zM394 172l33 33q9 9 21 0q5 -4 5 -9.5t-3 -8.5l-2 -3l-33 -33q-10 -10 -20.5 0.5t-0.5 20.5zM723 509v-507l237 67v502zM807 273l-32 -32
q-11 -10 -21.5 0.5t0.5 20.5l32 33q10 9 21 0q5 -5 5 -10t-2 -8zM897 363l-32 -32q-11 -11 -21.5 0t-0.5 21l33 32q10 11 21 0q4 -4 4 -9t-2 -9zM604 90l88 -92v513l-88 90v-511zM628.5 271.5q10.5 10.5 21.5 0.5l32 -33q11 -10 0 -21t-21 0l-33 32q-10 11 0.5 21.5zM64 90
l268 -85v504l-268 90v-509zM258 180h33q6 0 10.5 -4t4.5 -10.5t-4 -11t-11 -4.5h-33q-7 0 -11 4.5t-4 11t4 10.5t11 4zM184.5 265.5q10.5 10.5 21.5 0.5l32 -33q11 -10 0.5 -20.5t-21.5 -0.5l-32 32q-11 11 -0.5 21.5zM94.5 355.5q10.5 10.5 21.5 -0.5l32 -32
q11 -10 0.5 -21t-21.5 0l-32 32q-11 11 -0.5 21.5z" />
    <glyph glyph-name="kanshipin" unicode="&#xe613;" 
d="M912 747h-800q-20 0 -33.5 -13.5t-13.5 -33.5v-658q0 -19 13.5 -33t33.5 -14h329v-48h-94l-94 -94h518l-94 94h-94v48h329q20 0 33.5 14t13.5 33v658q0 20 -13.5 33.5t-33.5 13.5zM865 184q0 -20 -13.5 -33.5t-33.5 -13.5h-612q-19 0 -33 13.5t-14 33.5v422q0 19 14 33
t33 14h612q20 0 33.5 -14t13.5 -33v-422zM394 229l283 165l-283 165v-330z" />
    <glyph glyph-name="jiantouicon" unicode="&#xe603;" 
d="M115 356h794q22 0 37 -15.5t15 -37t-15 -36.5t-37 -15h-794q-22 0 -37 15t-15 36.5t15 37t37 15.5zM484.5 673.5q16.5 -16.5 19.5 -37t-9 -32.5l-323 -323q-15 -14 -45.5 -21t-48.5 8q-16 17 -15 37.5t14 33.5l338 345q12 12 32.5 9t37 -19.5zM115 356h794q22 0 37 -15.5
t15 -37t-15 -36.5t-37 -15h-794q-22 0 -37 15t-15 36.5t15 37t37 15.5zM415 -76l-338 344q-13 13 -14 33.5t15 38.5q18 14 48.5 7t45.5 -21l323 -323q12 -12 9 -32.5t-19.5 -37t-37 -19.5t-32.5 10z" />
    <glyph glyph-name="xiazai" unicode="&#xe60b;" 
d="M949 -15q0 -15 -11.5 -26.5t-27.5 -11.5h-797q-16 0 -27 11.5t-11 26.5v0q0 16 11 27.5t27 11.5h797q16 0 27.5 -11.5t11.5 -27.5v0zM512 93q-16 0 -27.5 11t-11.5 27v651q0 16 11.5 27t27.5 11v0q15 0 26.5 -11t11.5 -27v-651q0 -16 -11.5 -27t-26.5 -11v0zM539 105
q-12 -12 -27.5 -12t-26.5 12l-287 286q-11 11 -11 27t11 27v0q11 11 27 11t27 -11l287 -286q11 -12 11 -27.5t-11 -26.5v0zM485 105q-12 11 -12 26.5t12 27.5l286 286q11 11 27 11t27 -11v0q11 -11 11 -27t-11 -27l-286 -286q-12 -12 -27.5 -12t-26.5 12v0z" />
    <glyph glyph-name="youjiantou" unicode="&#xe614;" 
d="M679 300l-399 399q-8 9 -8 20.5t8 20t20 8.5t20 -8l415 -415q1 0 3.5 -1t3.5 -2q9 -9 8 -22q1 -13 -8 -22q-1 -1 -3.5 -1.5t-3.5 -1.5l-415 -414q-8 -8 -20 -8t-20 8t-8 20t8 20z" />
    <glyph glyph-name="zhuan" unicode="&#xe615;" horiz-adv-x="1261" 
d="M863 462l-216 -585l-284 588l-257 13l540 -602v-2l1 1l2 -2l-2 3l533 594zM646 -57l151 519h-361zM335 763l-249 -254l266 -1zM596 763h-221l29 -216zM905 763h-270l214 -218zM803 509l-195 213l-169 -217zM1182 509l-247 254l-40 -252z" />
    <glyph glyph-name="sousuo" unicode="&#xe61e;" 
d="M946 52l-164 164q72 100 72 222q0 105 -51.5 193.5t-140 139.5t-193 51t-193 -51t-139.5 -139.5t-51 -193t51 -193t139.5 -140t193.5 -51.5q121 0 221 71l164 -164q10 -9 26 -10.5t25 8.5l46 45q8 10 6 24t-12 24zM149 438.5q0 86.5 43 160.5t117 116.5t160.5 42.5
t160.5 -42.5t116.5 -116.5t42.5 -160.5t-42.5 -160.5t-116.5 -117t-160.5 -43t-160.5 43t-117 117t-43 160.5z" />
    <glyph glyph-name="aboutus" unicode="&#xe616;" 
d="M503.5 733q-90.5 0 -172.5 -35.5t-141.5 -95t-95 -141.5t-35.5 -172.5t35.5 -172.5t95 -141.5t141.5 -94.5t172.5 -35t172.5 35t141.5 94.5t95 141.5t35.5 172.5t-35.5 172.5t-95 141.5t-141.5 95t-172.5 35.5zM553 -32h-124v345h124v-345zM491 387q-36 0 -61 25.5
t-25 61t25 61t61 25.5t61.5 -25.5t25.5 -61t-25.5 -61t-61.5 -25.5z" />
    <glyph glyph-name="share" unicode="&#xe60c;" 
d="M623 -19l-1 -13q0 -51 35.5 -86.5t86 -35.5t86 35.5t35.5 86t-35.5 86t-86.5 35.5q-31 0 -58 -15t-44 -41l-258 202q14 27 14 55q0 16 -6 35l263 205q37 -40 89 -40q51 0 86.5 36t35.5 86t-35.5 86t-86 36t-86 -36t-35.5 -86q0 -16 5 -35l-263 -205q-36 39 -89 39
q-50 0 -85.5 -35.5t-35.5 -86t35.5 -86t85.5 -35.5q40 0 74 25l274 -212v0z" />
    <glyph glyph-name="xuzhi" unicode="&#xe628;" 
d="M628 653q-7 -5 -9.5 -13t1.5 -16l253 -442q4 -7 12.5 -9.5t15.5 1.5l48 27q7 5 9.5 13.5t-2.5 15.5l-252 442q-4 7 -12.5 9.5t-16.5 -1.5zM77 157q-8 -4 -10 -12.5t2 -15.5l95 -168q5 -7 13 -9.5t16 2.5l18 10q8 4 10 12.5t-2 16.5l-96 167q-4 7 -12.5 9.5t-15.5 -1.5z
M726 155l94 28l-226 395l-434 -406l92 -160l64 19l15 -48q4 -12 14.5 -19.5t24.5 -7.5v0q8 0 15 2l324 100q18 6 27 20.5t4 30.5zM374 4l-13 41l320 96l12 -38z" />
    <glyph glyph-name="fabiaopinglun" unicode="&#xe617;" 
d="M936 713l-95 95q-8 8 -20 8t-20 -8l-41 -41q-8 -8 -8 -20t8 -20l95 -95q8 -8 20 -8t20 8l41 41q8 8 8 20t-8 20zM372 338l94 -94q9 -8 20.5 -8t20.5 8l330 330q8 9 8 20.5t-8 20.5l-94 94q-9 8 -20.5 8t-20.5 -8l-330 -330q-8 -9 -8 -20.5t8 -20.5zM333 333
q-9 -2 -17.5 -10.5t-10.5 -18.5l-31 -140q-3 -10 2.5 -15.5t15.5 -2.5l140 31q10 2 18.5 10.5t10.5 17.5l1 6l-123 123zM884.5 472q-10.5 0 -18 -7.5t-7.5 -18.5v0v0v-407q0 -15 -10.5 -25t-24.5 -10h-657q-15 0 -25 10t-10 25v657q0 14 10 24.5t25 10.5h407q10 0 17.5 7.5
t7.5 18t-7.5 18t-17.5 8.5v0h-407q-36 0 -61.5 -25.5t-25.5 -61.5v-658q0 -35 25.5 -60.5t61.5 -25.5h657q36 0 61.5 25.5t25.5 60.5v408v0q0 11 -8 18.5t-18.5 7.5z" />
    <glyph glyph-name="fenlei" unicode="&#xe608;" 
d="M112 798q-6 0 -10.5 -4.5t-4.5 -10.5v-295q0 -6 4.5 -10.5t10.5 -4.5h295q6 0 10 4.5t4 10.5v295q0 6 -4 10.5t-10 4.5h-295zM616 798q-6 0 -10.5 -4.5t-4.5 -10.5v-295q0 -6 4.5 -10.5t10.5 -4.5h295q6 0 10.5 4.5t4.5 10.5v295q0 6 -4.5 10.5t-10.5 4.5h-295zM616 833
h295q21 0 35.5 -14.5t14.5 -35.5v-295q0 -21 -14.5 -35.5t-35.5 -14.5h-295q-21 0 -35.5 14.5t-14.5 35.5v295q0 21 14.5 35.5t35.5 14.5v0zM112 293q-6 0 -10.5 -4t-4.5 -10v-295q0 -6 4.5 -10.5t10.5 -4.5h295q6 0 10 4.5t4 10.5v295q0 6 -4 10t-10 4h-295zM112 329h295
q20 0 35 -14.5t15 -35.5v-295q0 -21 -14.5 -35.5t-35.5 -14.5h-296q-20 0 -34.5 14.5t-14.5 35.5v295q0 21 14.5 35.5t34.5 14.5h1zM616 329h295q21 0 35.5 -14.5t14.5 -35.5v-295q0 -21 -14.5 -35.5t-35.5 -14.5h-295q-21 0 -35.5 14.5t-14.5 35.5v295q0 21 14.5 35.5
t35.5 14.5v0zM112 833h295q20 0 35 -14.5t15 -35.5v-295q0 -21 -15 -35.5t-35 -14.5h-296q-20 0 -34.5 14.5t-14.5 35.5v295q0 21 14.5 35.5t34.5 14.5h1zM112 833z" />
    <glyph glyph-name="xiaoxi" unicode="&#xe618;" horiz-adv-x="1025" 
d="M512 806q-115 0 -212 -49t-153.5 -134t-56.5 -185q0 -73 32 -139.5t88 -117.5q20 -17 95.5 -72t141 -101l65.5 -46v109q115 0 212 49t153.5 134t56.5 184.5t-56.5 184.5t-153.5 134t-212 49zM303.5 382q-23.5 0 -40 16t-16.5 38.5t16.5 38.5t40 16t40 -16t16.5 -38.5
t-16.5 -38.5t-40 -16zM513.5 382q-23.5 0 -40 16t-16.5 38.5t16.5 38.5t40 16t40 -16t16.5 -38.5t-16.5 -38.5t-40 -16zM725.5 382q-23.5 0 -40 16t-16.5 38.5t16.5 38.5t40 16t40 -16t16.5 -38.5t-16.5 -38.5t-40 -16z" />
    <glyph glyph-name="huidingbu" unicode="&#xe620;" 
d="M943 -125h-865q-31 0 -53.5 22.5t-22.5 54.5v864q0 32 22.5 54.5t53.5 22.5h865q32 0 54.5 -22.5t22.5 -54.5v-864q0 -32 -22.5 -54.5t-54.5 -22.5zM994 791q0 32 -22.5 54t-53.5 22h-814q-32 0 -54 -22t-22 -54v-814q0 -32 22 -54t54 -22h814q31 0 53.5 22t22.5 54v814z
M394 368v-334h233v334h125l-241 302l-242 -302h125zM702 390h-102v-330h-178v330h-102l191 204zM752 696h-483v-26h483v26z" />
    <glyph glyph-name="jiudianxinxi" unicode="&#xe6b8;" 
d="M998 -134h-44v499q0 33 -25 58t-59 25h-102q-10 0 -18 -8t-8 -17.5t8 -17.5t18 -8h102q10 0 18 -8t8 -18v-499h-192v813q0 33 -25 58t-58 25h-461q-34 0 -58.5 -25t-24.5 -58v-819h-51q-10 0 -18 -8t-8 -18t8 -18t18 -8h966q10 0 18 8t8 18t-5.5 18t-14.5 8zM134 -134
v819q0 9 8 17t18 8h467q10 0 18 -8t8 -17v-819h-519zM506 518h-224q-10 0 -18 -8t-8 -17.5t8 -17.5t18 -8h224q9 0 17 8t8 17.5t-8 17.5t-17 8zM506 320h-224q-10 0 -18 -8t-8 -17.5t8 -17.5t18 -8h224q9 0 17 8t8 17.5t-8 17.5t-17 8zM506 154h-224q-10 0 -18 -8t-8 -18
q0 -12 6.5 -22t19.5 -10h224q9 0 17 8t8 18t-8 21t-17 11z" />
    <glyph glyph-name="jiantouxia" unicode="&#xe61f;" 
d="M958 514q0 -13 -9 -22l-415 -415q-9 -9 -22 -9t-22 9l-415 415q-9 9 -9 22t9.5 22t22 9t21.5 -9l393 -393l393 393q9 9 22 9t22 -9t9 -22v0zM958 514z" />
    <glyph glyph-name="home" unicode="&#xe601;" 
d="M924 358l-333 347q-32 33 -78 33t-78 -33l-333 -347q-16 -16 -22.5 -33.5t-6 -27.5t4.5 -18q15 -35 57 -35h49v-266q0 -47 30 -82.5t75 -35.5h56h86v63v219q0 4 -0.5 12.5t0 11t1 8t2 7l4.5 4.5t7.5 3.5t11.5 0.5h56h56q7 0 11.5 -0.5t7.5 -3.5l4.5 -4.5t2 -7t1 -8t0 -11
t-0.5 -12.5v-219v-63h86h56q45 0 75.5 35.5t30.5 82.5v266h48q42 0 58 35q3 8 3.5 18t-6 27.5t-22.5 33.5zM891 299h-42h-28h-33v-321q0 -24 -14.5 -43.5t-36.5 -19.5h-87v227q0 102 -81 102h-56h-56q-81 0 -81 -102v-227h-87q-22 0 -36.5 19.5t-14.5 43.5v321h-33h-28h-42
q-1 0 -2 2l-1 2q9 16 11 17l333 347q16 16 37 16t37 -16l333 -347q2 -1 11 -17l-1 -2t-2 -2z" />
    <glyph glyph-name="huifu" unicode="&#xe60e;" 
d="M289 428q-23 0 -39.5 -17t-16.5 -41t16.5 -40.5t39.5 -16.5t39.5 16.5t16.5 40.5t-16.5 41t-39.5 17v0v0zM512 428q-23 0 -39.5 -17t-16.5 -41t16.5 -40.5t39.5 -16.5t39.5 16.5t16.5 40.5t-16.5 41t-39.5 17v0v0zM735 428q-23 0 -39.5 -17t-16.5 -41t16.5 -40.5
t39.5 -16.5t39.5 16.5t16.5 40.5t-16.5 41t-39.5 17v0v0zM847 717h-670q-46 0 -78.5 -33.5t-32.5 -81.5v-434q0 -49 33.5 -86t80.5 -37h170q13 -14 51 -53.5t69.5 -72l31.5 -32.5q10 -10 20 0q90 102 148 158h174q47 0 80.5 37t33.5 86v434q0 48 -32.5 81.5t-78.5 33.5v0v0z
M902 168q0 -25 -17.5 -45t-40.5 -20h-171q-9 0 -19 -5.5t-15 -10.5l-5 -6l-120 -124l-121 124q-22 22 -42 22h-171q-23 0 -40.5 20t-17.5 45v434q0 24 16 41t39 17h670q23 0 39 -17t16 -41v-434v0v0zM902 168z" />
    <glyph glyph-name="chongzhi" unicode="&#xe619;" 
d="M737 46l113 113h-85v113h-56v-113h-85zM624 468l113 141h-84l-113 -141h-56l-113 141h-84l113 -141h-113v-56h197v-84h-197v-56h197v-113h28q0 -96 69 -163q-33 -6 -69 -6q-107 0 -197.5 53t-143.5 143.5t-53 197.5t53 197.5t143.5 143.5t197.5 53t197.5 -53
t143.5 -143.5t53 -197.5q0 -36 -6 -69q-67 69 -163 69q-85 0 -149 -56h-48v84h197v56h-113zM540 268v4h2zM62 384q0 -186 132 -318t318 -132q68 0 132 20q44 -20 93 -20q93 0 159 66t66 159q0 49 -20 93q20 64 20 132q0 186 -132 318t-318 132t-318 -132t-132 -318zM568 159
q0 70 49.5 119.5t119.5 49.5t119.5 -49.5t49.5 -119.5t-49.5 -119.5t-119.5 -49.5t-119.5 49.5t-49.5 119.5z" />
    <glyph glyph-name="huodongbaoming" unicode="&#xe629;" 
d="M896 60h-416q-7 0 -11.5 4.5t-4.5 11.5v16q0 7 4.5 11.5t11.5 4.5h416q7 0 11.5 -4.5t4.5 -11.5v-16q0 -7 -4.5 -11.5t-11.5 -4.5v0zM896 236h-352q-7 0 -11.5 4.5t-4.5 11.5v16q0 7 4.5 11.5t11.5 4.5h352q7 0 11.5 -4.5t4.5 -11.5v-16q0 -7 -4.5 -11.5t-11.5 -4.5v0z
M896 412h-288q-7 0 -11.5 4.5t-4.5 11.5v16q0 7 4.5 11.5t11.5 4.5h288q7 0 11.5 -4.5t4.5 -11.5v-16q0 -7 -4.5 -11.5t-11.5 -4.5v0zM323 37q-5 -6 -12 -15t-27.5 -31t-39.5 -38.5t-41 -27t-37 -6t-26 26.5t-16.5 46t-9 54t-4 41.5t-0.5 18.5v0l194 564q6 19 24 28t37 3
l121 -40q19 -6 28 -24t3 -37l-194 -563v0zM456 620l-91 30q-6 2 -12 -1t-8 -9l-180 -518q0 -3 -0.5 -8t-1 -18.5t0 -26.5t1.5 -29t3 -27.5t6.5 -20.5t10.5 -11q9 -3 23 7t26 23.5t26 32t19 26.5t8 12v0l179 518q3 6 0 12t-10 8v0z" />
    <glyph glyph-name="schemeplan" unicode="&#xe602;" 
d="M208 619q-40 0 -68.5 28.5t-28.5 68.5t28.5 68.5t68.5 28.5t68.5 -28.5t28.5 -68.5t-28.5 -68.5t-68.5 -28.5zM208 774q-24 0 -41.5 -17t-17.5 -41t17.5 -41.5t41.5 -17.5t41 17.5t17 41.5t-17 41t-41 17zM208 286q-40 0 -68.5 28.5t-28.5 68.5t28.5 68.5t68.5 28.5
t68.5 -28.5t28.5 -68.5t-28.5 -68.5t-68.5 -28.5zM208 441q-24 0 -41.5 -17t-17.5 -41t17.5 -41t41.5 -17t41 17t17 41t-17 41t-41 17zM208 -47q-40 0 -68.5 28.5t-28.5 69t28.5 69t68.5 28.5t68.5 -28.5t28.5 -69t-28.5 -69t-68.5 -28.5zM208 109q-24 0 -41.5 -17
t-17.5 -41.5t17.5 -41.5t41.5 -17t41 17t17 41.5t-17 41.5t-41 17zM906 697h-431q-9 0 -15 6t-6 15v0q0 8 6 14.5t15 6.5h431q9 0 15.5 -6.5t6.5 -14.5v0q0 -9 -6.5 -15t-15.5 -6zM906 362h-431q-9 0 -15 6t-6 15v0q0 9 6 15t15 6h431q9 0 15.5 -6t6.5 -15v0q0 -9 -6.5 -15
t-15.5 -6zM906 16h-431q-9 0 -15 6t-6 15v0q0 9 6 15t15 6h431q9 0 15.5 -6t6.5 -15v0q0 -9 -6.5 -15t-15.5 -6z" />
    <glyph glyph-name="geshou" unicode="&#xe62a;" 
d="M526 62l89 78q15 13 17 35q3 44 -40 93q-31 36 -67.5 47.5t-57.5 -6.5l-88 -78q-26 -22 -14 -64q0 -1 1 -3t1 -3l-84 -95q-6 -8 -6 -17.5t6 -16.5l2 -2l-5 -3q-8 -7 -8.5 -17.5t6.5 -18.5q7 -9 19 -9q10 0 17 6l4 4q8 -8 19 -8q8 0 14 4l59 39l1 -146q0 -11 7.5 -18.5
t18.5 -7.5t18.5 7.5t7.5 18.5l-2 177q18 -8 32 -8q20 0 33 12zM501 269q8 0 22.5 -8.5t29.5 -25.5q11 -13 18 -26.5t9 -20.5t1 -10l-23 -20l-80 92zM342 43l-5 6l56 64q6 -8 9 -11q5 -6 11 -11zM440 136q-11 13 -18 26t-9 20.5t-1 10.5l27 23l81 -92l-26 -22q0 -1 -1 -1
q-8 0 -23 9t-30 26zM888 -25q-2 15 -5 68q-3 60 -6 78q-10 80 -29 132q-12 33 -48 58q-23 15 -69 28q-26 8 -31 10q-46 17 -59 34q-20 28 31 103q13 19 11 58v7q0 10 -7 19q0 1 -1 2v11q-1 33 -3 50q-7 52 -37.5 85t-80.5 43q-47 9 -92 -2q-92 -24 -108 -114q-2 -10 -4 -29
q-1 -13 -1 -19q-1 -7 -1 -19q1 -10 -2 -14q-10 -18 -7.5 -41t15.5 -42q6 -7 13 -24l3 -7q6 -13 14 -27q6 -9 4 -23t-10 -21q-27 -24 -78 -37q-22 -6 -64 -24q-48 -22 -65 -78q-20 -67 -34 -247l-1 -22q-2 -25 21 -39q40 -22 83 -37q63 -20 138 -31v52q-68 11 -122 28
q-35 12 -69 30l2 15q13 175 31 237q10 33 39 45q36 16 54 21q62 16 99 49q22 20 27 51.5t-11 57.5q-6 11 -11 21l-3 6q-10 23 -19 35q-4 6 -5 15t1 11q10 17 8 42v10q1 7 2.5 22.5t2.5 22.5q11 59 71 74q33 9 69 2q68 -14 77 -84q2 -14 2 -44l1 -15q0 -14 8 -24v-3
q1 -21 -2 -26q-16 -23 -25.5 -41t-16.5 -40t-4 -42.5t16 -38.5q10 -13 25.5 -24t26.5 -16t30 -12q6 -2 35 -11q38 -11 54 -22q23 -15 29 -33q17 -46 27 -121q2 -16 5 -74q3 -49 5 -66q-67 -36 -156 -53q-88 -17 -188 -14v-52h9.5h10.5q91 0 177 16q100 18 175 60
q27 15 23 44z" />
    <glyph glyph-name="weizhi" unicode="&#xe604;" 
d="M512 834q-94 0 -174 -46.5t-126.5 -126.5t-46.5 -174q0 -109 61 -197q4 -6 7 -10l253 -334q11 -12 26 -12t27 13l252 333q3 4 6 9q62 89 62 198q0 94 -46.5 174t-126.5 126.5t-174 46.5zM512 363q-51 0 -87.5 36t-36.5 87.5t36.5 88t87.5 36.5t87.5 -36.5t36.5 -88
t-36.5 -87.5t-87.5 -36z" />
    <glyph glyph-name="zan" unicode="&#xe605;" 
d="M887 472h-239q19 70 25.5 127.5t3 93.5t-15 63.5t-23 41t-26 22t-19.5 10t-9 1.5v0q-23 0 -36 -8.5t-15.5 -18t-3.5 -21t-2 -13.5q0 -46 -18.5 -94t-44.5 -83t-52 -63.5t-44 -42.5l-19 -15v-473q0 -21 18 -36.5t37 -21.5t34 -6h359q9 0 19 9.5t17 22.5t13 26t9 22l3 9
q39 134 61.5 232t24.5 128l3 31q0 18 -6.5 30t-15 17t-17.5 8t-15 3l-6 -1v0zM887 472zM252 472h-143q-13 0 -20.5 -7t-8.5 -14l-1 -8l29 -477q0 -14 7.5 -21.5t15.5 -8.5l8 -1h123q12 0 18.5 5t6.5 10l1 5v481q0 16 -9 25.5t-18 9.5l-9 1v0zM252 472z" />
    <glyph glyph-name="hezuo-copy" unicode="&#xe640;" 
d="M28 327l56 -29q3 -2 7.5 -3.5t15 1.5t16.5 15l139 290q1 2 3 6.5t0 14.5t-11 15l-61 30q-19 10 -32 -12q0 -4 -35.5 -78t-71 -145.5l-35.5 -71.5q-9 -24 9 -33zM943 297l57 27q1 0 2.5 1t6 4.5t6 7.5t3 10.5t-3.5 14.5l-143 288q0 1 -1 2.5l-4 6t-7 6t-9.5 3.5t-12.5 -2
l-61 -30q-2 -1 -4.5 -3t-7 -10t1.5 -18q3 -3 39.5 -76.5t71 -146l34.5 -72.5q1 -2 3.5 -5t11 -8t17.5 0zM164 298l19 40l66 -83q5 1 12.5 2t23.5 -3t22 -16q2 -2 4 -5.5t5 -16t-1 -26.5q9 -6 10 -10q30 7 47 -14q2 -2 5 -4.5t7 -12.5t3 -22q12 -5 14 -12q29 8 43 -9
q2 -2 5 -5.5t7.5 -12.5t3.5 -17l27 -20q26 -2 30 -22l24 -18q2 -1 4.5 -1.5t9 -1t12 1t10 8t5.5 16.5l-91 70q-1 1 -1.5 3t-0.5 6.5t2 7.5t7.5 5.5t15.5 0.5l135 -95q23 -10 36 11q13 19 -6 38l-144 105q0 1 -1 3t-1.5 7t1 8.5t7 6t14.5 2.5l171 -122q25 -9 35 9q14 18 0 37
l-189 138q-1 1 -1 3t-0.5 7.5t2 8.5t7.5 6t16 -1l195 -139q3 -1 8.5 -2t17 2.5t17.5 14.5q1 3 3.5 8t1.5 17.5t-11 21.5l-276 241q-2 1 -5.5 2t-14 2.5t-20.5 0t-21.5 -9.5t-20.5 -22q0 -3 -1 -9t-7 -21t-15.5 -27.5t-29 -24.5t-45.5 -17q-1 0 -3.5 0.5t-9 1.5t-11.5 3
t-12 5.5t-9.5 8.5t-5 12t1.5 16q2 2 5.5 7.5t8 25.5t3.5 43q3 37 28 69h-99l22 45h150q7 4 18.5 9.5t40 14.5t49.5 8q60 -4 77 -13q9 -3 23 -7t45.5 -9.5t47.5 -2.5l134 -279l-21 -48q1 -2 3.5 -5t8 -12.5t8 -19.5t0.5 -24.5t-10 -28.5q-15 -31 -63 -34q6 -33 -18 -51
q-2 -3 -6 -6.5t-19.5 -8.5t-34.5 -3q3 -29 -25 -48q-4 -3 -11 -7t-29 -3t-45 16q-1 -4 -3.5 -9.5t-15 -16t-31.5 -13.5q-30 -5 -47 12q-1 -3 -3.5 -6.5t-10.5 -12t-16.5 -13t-21 -4t-24.5 9.5q-1 1 -3 2.5t-6 7.5t-5.5 12.5t-0.5 15.5t6 19q-1 -3 -4 -6.5t-12 -11.5
t-18.5 -12t-23 -1t-25.5 16q-1 0 -2.5 1.5t-4.5 7t-4.5 12t0.5 16.5t9 21l-4.5 -4.5t-11 -7.5t-17 -7t-20.5 1.5t-23 13.5q-1 1 -2.5 3t-5 8t-5 12.5t0 17.5t7.5 22q-2 -1 -4.5 -4t-11 -8t-17.5 -7t-22 2t-25 15q-2 2 -4 6t-6 17.5t3 30.5l41 57z" />
    <glyph glyph-name="gerenxinxi" unicode="&#xe624;" 
d="M296 625v0v0zM247.5 587q22.5 0 38.5 19.5t16 47.5v75q0 28 -16 47.5t-38.5 19.5t-38.5 -19.5t-16 -47.5v-75q0 -28 16 -47.5t38.5 -19.5zM955 659q-1 17 -7 29.5t-14.5 17.5t-17 7.5t-14.5 2.5h-6h-2h-28h-2v-106q0 -2 -0.5 -5t-3 -11t-7 -14.5t-14 -11.5t-21.5 -5h-9
h-70h-13q-20 1 -31 12.5t-12 22.5v11v107h-3h-338h-3v-107v-5t-2 -10.5t-6 -13.5t-13.5 -11t-22.5 -6h-12h-70h-9q-13 0 -22 5t-13.5 12t-7 13.5t-3.5 11.5v5v106h-2h-28h-2h-6.5t-13.5 -2.5t-18 -7.5t-14.5 -17.5t-7.5 -29.5v-4v-591q0 -50 51 -60l11 -1h766q2 0 6.5 0.5
t15 4t18.5 9t14.5 18t6.5 29.5v41v87.5t0.5 114.5t0.5 123.5v112v81.5v31q-1 2 -1 4zM512 128q0 -57 -172 -57q-174 0 -174 57v12q0 24 34.5 47.5t79.5 40.5q4 1 7.5 4.5t7 12t-2.5 21.5q-20 20 -33 50.5t-13 60.5q0 47 27 73t66.5 26t66 -26t26.5 -73q0 -30 -12.5 -60
t-32.5 -51v0q-6 -14 -3 -23t5.5 -11.5t5.5 -3.5q47 -16 82 -39.5t35 -48.5v-12zM817 149h-194q-17 0 -29.5 12t-12.5 29.5t12.5 29.5t29.5 12h194q18 0 30 -12t12 -29.5t-12 -29.5t-30 -12zM817 314h-194q-17 0 -29.5 12.5t-12.5 29.5t12.5 29.5t29.5 12.5h194
q18 0 30 -12.5t12 -29.5t-12 -29.5t-30 -12.5zM774.5 587q22.5 0 38.5 19.5t16 47.5v75q0 28 -17 47.5t-40 19.5q-22 0 -37 -19.5t-15 -47.5v-75q0 -28 16 -47.5t38.5 -19.5z" />
    <glyph glyph-name="chanpinfenleizhoubianyou" unicode="&#xe645;" 
d="M654 206l-5 -54q87 -12 143.5 -35t56.5 -51q0 -38 -105.5 -66.5t-234 -28.5t-233.5 28.5t-105 66.5q0 27 55 50t140 35l-5 54q-139 -15 -227 -53t-88 -86q0 -39 62 -73t169 -53.5t233 -19.5t233 19.5t169 53.5t62 73q0 49 -89.5 87t-230.5 53zM550 49v246h-63v-246h63z
M848 412l-154 92h-396v-185h394zM853 541v197h-603l-155 -98l157 -99h601v0zM550 848h-63v-85h63v85z" />
    <glyph glyph-name="liulan" unicode="&#xe609;" 
d="M512 241q-57 0 -98 40.5t-41 98t41 98t98 40.5t98 -40.5t41 -98t-41 -98t-98 -40.5zM512 479q-41 0 -70.5 -29t-29.5 -70.5t29.5 -70.5t70.5 -29t70.5 29t29.5 70.5t-29.5 70.5t-70.5 29zM960 365q-11 0 -17 10q-27 52 -72.5 98.5t-101.5 79.5q-119 70 -256 70h-2
q-137 0 -256 -70q-56 -33 -101.5 -79.5t-72.5 -98.5q-4 -7 -11.5 -9.5t-15 1t-9.5 11.5t1 15q29 56 78.5 107t110.5 87q63 36 133 56q72 19 144 19q73 0 144 -19q70 -20 133 -56q61 -36 110.5 -87t78.5 -107q3 -7 1 -15t-10 -11q-4 -2 -9 -2zM513 101h-2q-72 0 -142.5 19
t-133.5 56q-61 36 -110.5 86.5t-78.5 107.5q-3 7 -1 14.5t9.5 11.5t15 1.5t11.5 -9.5q27 -52 72.5 -98.5t101.5 -79.5q119 -71 256 -71h2q137 0 256 71q56 33 101.5 79.5t72.5 98.5q4 7 11.5 9.5t15 -1.5t9.5 -11.5t-1 -14.5q-29 -57 -78.5 -107.5t-111.5 -86.5
q-62 -37 -132.5 -56t-142.5 -19z" />
    <glyph glyph-name="huiyuanzhongxin" unicode="&#xe6e1;" 
d="M205 133q-35 0 -59.5 24.5t-24.5 59t24.5 59t59.5 24.5h145q5 31 17 62q-35 11 -56.5 40t-21.5 66v167q0 47 32.5 79.5t79 32.5t79 -32.5t32.5 -79.5v-102q27 16 56 26v76q0 70 -49 119t-118.5 49t-118.5 -49t-49 -119v-167q0 -64 43 -112h-71q-58 0 -99 -41t-41 -98.5
t41 -98.5t99 -41h186q-16 27 -26 56h-160zM679.5 524q-115.5 0 -197.5 -82t-82 -197.5t82 -197.5t197.5 -82t197.5 82t82 197.5t-82 197.5t-197.5 82zM679.5 35q-86.5 0 -148 61.5t-61.5 148t61.5 148t148 61.5t148 -61.5t61.5 -148t-61.5 -148t-148 -61.5zM679 204
l-101 101l-34 -34l101 -101l34 -33l34 33l100 101l-33 34z" />
    <glyph glyph-name="13zhibo" unicode="&#xe606;" 
d="M400 296l241 155l-241 155v-310zM395 296zM870 136h-715q-37 0 -63.5 26.5t-26.5 63.5v446q0 37 26.5 63.5t63.5 26.5h715q37 0 63.5 -26.5t26.5 -63.5v-446q0 -37 -26.5 -63.5t-63.5 -26.5zM155 721q-20 0 -34.5 -14.5t-14.5 -34.5v-446q0 -20 14.5 -34.5t34.5 -14.5
h715q20 0 34.5 14.5t14.5 34.5v446q0 20 -14.5 34.5t-34.5 14.5h-715zM661 5h-297q-8 0 -14 6t-6 14.5t6 14.5t14 6h297q8 0 14 -6t6 -14.5t-6 -14.5t-14 -6z" />
    <glyph glyph-name="bofang" unicode="&#xe61a;" 
d="M383 149v470l257 -236zM776 -65h-529q-76 0 -130 54t-54 130v529q0 76 54 130t130 54h529q76 0 130 -54t54 -130v-529q0 -76 -54 -130t-130 -54zM247 790q-58 0 -99.5 -41.5t-41.5 -100.5v-529q0 -58 41.5 -99.5t99.5 -41.5h529q58 0 99.5 41.5t41.5 99.5v529
q0 59 -41.5 100.5t-99.5 41.5h-529z" />
    <glyph glyph-name="jiantouxia1" unicode="&#xe600;" 
d="M731 179l-22 23q-12 11 -23 0l-141 -141v739q0 6 -5 11t-11 5h-32q-7 0 -11.5 -5t-4.5 -11v-739l-142 142q-11 11 -22 0l-23 -23q-12 -12 0 -23l201 -201q8 -9 19 -2q10 -4 17 3l200 200q12 11 0 22z" />
    <glyph glyph-name="biaoqing" unicode="&#xe62e;" 
d="M512 839q-93 0 -177 -36t-145 -97t-97 -145t-36 -177t36 -177t97 -145t145 -97t177 -36t177 36t145 97t97 145t36 177t-36 177t-97 145t-145 97t-177 36zM333.5 564q28.5 0 48.5 -20t20 -48.5t-20 -48.5t-48.5 -20t-48.5 20t-20 48.5t20 48.5t48.5 20zM512 139
q-50 0 -96.5 19.5t-76 47.5t-47.5 57t-18 48h238h238q0 -19 -18 -48t-47.5 -57t-76 -47.5t-96.5 -19.5zM690.5 427q-28.5 0 -48.5 20t-20 48.5t20 48.5t48.5 20t48.5 -20t20 -48.5t-20 -48.5t-48.5 -20z" />
    <glyph glyph-name="jifen" unicode="&#xe61b;" 
d="M112 612q0 56 53.5 103t145.5 74.5t201 27.5t201 -27.5t145.5 -74.5t53.5 -103t-53.5 -103.5t-145.5 -75t-201 -27.5t-201 27.5t-145.5 75t-53.5 103.5zM512 345q-121 0 -220 33.5t-146 88.5q-34 -39 -34 -83q0 -56 53.5 -103t145.5 -74.5t201 -27.5t201 27.5t145.5 74.5
t53.5 103q0 44 -34 83q-47 -55 -146 -88.5t-220 -33.5zM512 111q-122 0 -222 34.5t-146 90.5q-32 -38 -32 -80q0 -56 53.5 -103t145.5 -74.5t201 -27.5t201 27.5t145.5 74.5t53.5 103q0 42 -32 80q-46 -56 -146 -90.5t-222 -34.5z" />
    <glyph glyph-name="bofang1" unicode="&#xe607;" 
d="M658 403l-222 155q-11 7 -22 1.5t-11 -18.5v-314q0 -13 12 -18q4 -3 9 -3q7 0 12 4l222 160q9 6 9 16.5t-9 16.5zM444 267v235l167 -116zM825 747h-626q-56 0 -96 -40t-40 -95v-456q0 -55 40 -95t96 -40h626q56 0 96 40t40 95v456q0 55 -40 95t-96 40zM920 156
q0 -39 -28 -66.5t-67 -27.5h-626q-39 0 -67 27.5t-28 66.5v456q0 39 28 66.5t67 27.5h626q39 0 67 -27.5t28 -66.5v-456z" />
    <glyph glyph-name="fabu" unicode="&#xe60a;" 
d="M274 -73q-77 0 -133.5 54t-59.5 131v0v544v0q3 77 59.5 131t133.5 54h379l-64 -54h-315q-57 0 -98.5 -41t-41.5 -99v-526q0 -58 41.5 -99t98.5 -41h483q57 0 98.5 41t41.5 99v364l53 53v-426v0q-3 -77 -59.5 -131t-133.5 -54h-483zM354 194q-7 0 -8 2q-4 5 -2 18
q2 10 6 27q4 14 11 37q5 20 10 36t8 21h1q3 9 7.5 16t13.5 16q2 3 16 18l2 2q5 5 35 36q23 23 29 30l48 50l53 55l129 135l109 -112l-130 -138l-52 -55q-5 -4 -18 -18q-47 -48 -58 -59q-17 -18 -34 -37q-13 -13 -16 -15v-1q-7 -6 -15 -12q-7 -6 -15 -10h-1q-8 -4 -26 -11
q-17 -7 -36 -13q-19 -7 -36 -11q-18 -5 -25 -6q-3 -1 -6 -1zM769 752q6 6 16 15q12 13 22 21t20 11q9 3 19 3h2q5 0 10 -1v0v0q24 -5 43 -24q11 -10 18 -23q10 -18 9 -35v-1v-3v-2q0 -9 -4 -18q-3 -9 -11 -18t-17 -18q-8 -7 -14 -14q-2 -2 -4 -5z" />
    <glyph glyph-name="bangdan" unicode="&#xe627;" 
d="M40 896v-57h118v-619l366 -267l345 266v620h115v57h-944v0zM820 251l-2 -1l-295 -230l-1 1l-315 231v587h613v-588v0zM287 632h450v-58h-450v58v0zM287 476h450v-57h-450v57v0z" />
    <glyph glyph-name="zan1" unicode="&#xe622;" 
d="M672 -88q-61 0 -104.5 6t-61.5 12t-47 20q-67 31 -154 43v-25h-137q-37 0 -61 35q-20 31 -20 74v336q0 42 20 73q24 36 61 36h137v-19q143 49 242 124q57 44 85 88q27 44 21 84q-4 23 13 42q14 17 34 17q25 0 51.5 -13.5t42.5 -42.5q27 -47 13 -120q-14 -69 -64 -160h125
q41 0 62 -33q16 -26 16 -64q0 -60 -31 -97q1 -1 1 -2q11 -20 11 -51q0 -45 -20 -87q-13 -26 -31 -40v-12q0 -41 -20 -84q-20 -40 -49 -52q-8 -39 -44 -63q-38 -25 -91 -25zM309 42q45 -5 80.5 -14t51 -15.5t39.5 -17.5q26 -12 42 -17.5t55 -10.5t95 -5q35 0 61 15t26 44v25
h25q8 0 18 14q14 19 21 49q6 26 3 35q3 -8 14 -8v50q10 0 22 25q15 31 15 64q0 18 -4 26q-2 3 -5 3v50q7 0 16 17q12 24 12 54q0 24 -8 37q-7 10 -20 10h-212l23 38q35 59 55 107t24 79.5t2 50t-9 30.5q-16 29 -48 31v-2q17 -109 -126 -218q-112 -86 -272 -137zM168 472
q-12 0 -21.5 -17.5t-9.5 -41.5v-336q0 -24 9.5 -41.5t21.5 -17.5h87v454h-87z" />
    <glyph glyph-name="jingdianmenpiao" unicode="&#xe631;" 
d="M315 407q-6 -4 -16 -29t-16 -48l-6 -23q13 12 25 13q6 0 13 -5.5t12 -10.5l4 -6q1 3 3 7.5t7 11.5t10 6.5t12.5 -5t13.5 -8.5l5 -4q-7 21 -23 60q-12 30 -21.5 39.5t-22.5 1.5zM598 702q-13 -7 -30.5 -53t-29.5 -89l-11 -43q25 22 48 23q10 1 23.5 -9t21.5 -20l8 -11
q2 6 5.5 14.5t14 22.5t20 13t23.5 -8t23 -13l9 -7q-12 32 -41 104q-22 53 -42.5 71t-41.5 5zM511 893q-104 0 -198.5 -40.5t-163 -108.5t-109 -162.5t-40.5 -198.5t40.5 -198.5t109 -163t163 -109t198.5 -40.5t198.5 40.5t162.5 109t108.5 163t40.5 198.5t-40.5 198.5
t-108.5 162.5t-162.5 108.5t-198.5 40.5zM144 106q75 180 101 246q8 21 14.5 35t16.5 33t20 27.5t22.5 13t26.5 -4.5t30 -30q29 -41 62 -122t51 -138.5t18 -61.5zM549 104q-54 165 -116 292q100 281 121 311q7 9 15.5 17.5t21 15t25.5 8t28.5 -6t30.5 -24t31.5 -48
t31.5 -77.5q40 -121 75 -243.5t49.5 -182t14.5 -62.5h-328z" />
    <glyph glyph-name="zanzan-copy" unicode="&#xe623;" 
d="M367 856q61 0 104.5 -6t61.5 -12t47 -20q67 -31 154 -43v25h137q37 0 61 -35q20 -31 20 -74v-336q0 -42 -20 -73q-24 -36 -61 -36h-137v19q-143 -49 -242 -124q-57 -44 -85 -88q-27 -44 -21 -84q4 -23 -13 -42q-14 -17 -34 -17q-25 0 -51.5 13.5t-42.5 42.5
q-27 47 -12 120q13 69 63 160h-125q-41 0 -62 33q-16 26 -16 64q0 60 31 97q-1 1 -1 2q-11 20 -11 51q0 45 20 87q13 26 31 40v12q0 41 20 84q20 40 49 52q8 39 44 63q38 25 91 25zM730 726q-45 5 -80.5 14t-51 15.5t-39.5 17.5q-26 12 -42 17.5t-55 10.5t-95 5
q-35 0 -61 -15t-26 -44v-25h-25q-8 0 -18 -14q-14 -19 -21 -49q-6 -26 -2 -35q-4 8 -15 8v-50q-10 0 -22 -25q-15 -31 -15 -64q0 -18 4 -26q2 -3 5 -3v-50q-7 0 -16 -17q-12 -24 -12 -54q0 -24 8 -37q7 -10 20 -10h212l-23 -38q-35 -59 -55 -107t-24 -79.5t-2 -50t10 -30.5
q15 -29 47 -31q0 1 1 2q-18 109 125 218q112 86 272 137zM871 296q12 0 21.5 17.5t9.5 41.5v336q0 24 -9.5 41.5t-21.5 17.5h-87v-454h87z" />
    <glyph glyph-name="back-top" unicode="&#xe621;" 
d="M10 74l502 623l502 -623l-502 293l-502 -293v0z" />
    <glyph glyph-name="integral" unicode="&#xe61c;" 
d="M465 -81q-192 24 -309 170q-83 103 -99 234.5t39 249.5q45 94 124 159.5t171 91.5t193.5 11.5t187.5 -72.5q93 -62 145.5 -154.5t58.5 -204.5q8 -165 -83 -293q-19 -27 -54.5 -62t-62.5 -53q-65 -44 -151 -65.5t-160 -11.5zM606 201q26 9 49.5 30t27.5 38q4 14 1 16
q-3 4 -24.5 -4t-30.5 -17q-31 -29 -110 -30q-86 0 -115 30q-12 12 -25.5 15.5t-22.5 6.5q-5 1 -7 -1t-2 -9q0 -23 31.5 -48t73.5 -36q29 -8 77.5 -5t76.5 14zM603 290q37 15 59.5 36.5t22.5 42.5q0 7 -2 8.5t-9 -0.5q-31 -10 -59 -30q-35 -26 -107.5 -23t-101.5 31
q-11 10 -35 17q-17 5 -20.5 4.5t-3.5 -9.5q0 -22 29 -46.5t69 -35.5q28 -8 81.5 -6t76.5 11zM574 370q48 10 79.5 36.5t31.5 56.5q0 33 -28.5 59t-70 37.5t-92.5 8t-92 -25.5q-53 -28 -55.5 -71.5t45.5 -74.5q35 -22 73 -28q20 -4 54.5 -3t54.5 5z" />
    <glyph glyph-name="qiandai" unicode="&#xe61d;" 
d="M614 621l135 179h-487l135 -179q-42 -12 -84 -38t-79 -61.5t-67 -79.5t-50.5 -90.5t-26 -94.5t2.5 -92.5t38.5 -83t79 -67t127.5 -44.5t180 -15q117 -1 203 24t131.5 67t66 97t13 114t-34 118t-69 108.5t-98.5 86.5t-116 51zM614 134q-24 -16 -70 -25v-90h-51v83
q-32 0 -45 7q-7 2 -18 4t-17.5 4t-9.5 5v51q13 -13 51 -26q20 -6 58 -6q83 0 83 51q0 19 -6 26q-13 12 -26 19q-17 26 -64 45q-48 16 -77 44q-19 29 -19 58q0 42 39 70q19 20 51 20v89h51v-83v0q51 0 90 -13v-51q-52 26 -90 26q-26 0 -64 -13q-26 -26 -26 -45t20 -38
q3 -2 25.5 -15t44.5 -24q6 -3 21.5 -10.5t21.5 -10.5t15.5 -9t15.5 -10.5t9 -10.5q26 -38 26 -58q0 -44 -39 -64z" />
    <glyph glyph-name="toupiao" unicode="&#xe62b;" horiz-adv-x="1033" 
d="M229 84h-134v342h134v-342zM460 84h-134v693h134v-693zM692 84h-134v482h134v-482v0zM790 258h134v-174h-134v174zM2 -9h1015v-60h-1015v60z" />
    <glyph glyph-name="lvyou" unicode="&#xe657;" 
d="M215 -124h134q-24 38 -43 106zM767 164l-227 -255l23 -33h166h295zM553 259l-107 -129q2 -11 7 -40t7.5 -38.5t8 -29t13 -35t18.5 -33.5l1 1l156 183zM475 -99q-6 10 -12 22l-1 1v1q-18 34 -34 77q-2 4 -2 5q-5 12 -8 20l-2 8q-3 9 -6 19q-3 8 -3 9q-4 12 -5 17
q-32 107 -44 177t-7 92q1 2 1 6q43 5 98 -3q24 -4 58.5 -16.5t55.5 -19t24 -0.5q2 4 -13.5 22.5t-41 39.5t-47.5 31q21 3 45 4t38 1t36.5 -1t27.5 -1q39 -1 40 0q3 3 -5.5 10t-22.5 14.5t-27 11.5q-62 20 -119 7q-67 -16 -138 -62q1 1 1 2q9 22 22.5 41t26 31.5t31.5 25.5
t29.5 18.5t29.5 14.5t22.5 11t8.5 4.5t8.5 4l7 3t5 3t1.5 2.5q0 6 -25.5 10t-46.5 2h-3q-60 -6 -93 -43q-20 -23 -33 -56q-6 73 -31 117q-11 20 -28 33t-34 17t-26.5 5.5t-16.5 0.5q-15 -1 3 -53q4 -14 11.5 -27.5t20.5 -35t21 -35.5t29 -50q-34 40 -71 57
q-22 10 -46.5 10.5t-33 -1.5t-26.5 -8q-12 -4 -26.5 -12t-25 -15.5t-8.5 -11.5q0 -2 34 -4q4 0 25.5 -0.5t33.5 -1.5t34.5 -5.5t39 -10.5t36.5 -18.5t37 -29.5q1 -1 3 -2q-77 28 -142 28q-29 0 -56 -7.5t-34.5 -11.5t-24.5 -14q-11 -7 -23 -17t-19 -19t-4 -11q2 -1 40 9
q4 1 27 7t36.5 9.5t39.5 7.5t47 5t48.5 -1t53.5 -8q-70 -14 -101 -73q-10 -21 -11.5 -58t3 -64.5t9.5 -29.5q7 -1 15.5 19t20.5 54.5t25 54.5q30 50 62 80q-2 -37 -2.5 -68t2 -61t4 -47t8 -48.5t9 -42.5t11.5 -50v0q13 -53 29 -102v-1q1 -3 3 -8.5t2 -7.5q1 0 1 -1v-1
l13 -32h91q-10 14 -14 20q-1 3 -2 5zM376 384q7 3 20.5 6.5t42 2.5t49.5 -13q4 -3 1 -7q-1 -2 -4 -2h-3q-18 11 -45.5 11.5t-38.5 -2.5t-19 -5q-5 -2 -6.5 3t3.5 6zM276 330q-3 -2 -13.5 -11.5t-26.5 -31t-20 -43.5q-1 -4 -5 -4h-1q-5 1 -4 6q4 24 21 47.5t27 32t16 12.5
q4 3 7 -1t-1 -7zM326 423v0q-5 0 -5 5q-4 84 -72 172q-3 4 1 7t7 0q8 -10 20.5 -26.5t32 -62t21.5 -89.5q1 -5 -5 -6z" />
    <glyph glyph-name="shipinleiquyujujiao" unicode="&#xe846;" 
d="M192 896h-128h-64v-64v-128h64v128h128v64zM64 0v128h-64v-192h64h128v64h-128zM896 128v-128h-128v-64h192v64v128h-64zM768 896v-64h128v-128h64v128v64h-192zM448 636v64q-99 -12 -168.5 -82.5t-81.5 -169.5h64q11 73 62.5 125t123.5 63zM704 448h64q-11 101 -83 172
t-173 81v-64q74 -10 127.5 -62.5t64.5 -126.5zM512 195v-64q101 10 173 81t83 172h-64q-11 -74 -64.5 -126.5t-127.5 -62.5zM262 384h-64q12 -99 81.5 -169.5t168.5 -82.5v64q-72 11 -123.5 63t-62.5 125z" />
    <glyph glyph-name="zhaopian" unicode="&#xe62f;" 
d="M513 555q-82 0 -140 -58t-58 -140t58 -139.5t140 -57.5t140 57.5t58 139.5t-58 140t-140 58zM948 674h-236v45q0 24 -17 41t-41 17h-281q-24 0 -41 -17t-17 -41v-45h-237q-24 0 -41 -13.5t-17 -31.5v-593q0 -19 17 -32t41 -13h870q24 0 41 13t17 32v593q0 18 -17 31.5
t-41 13.5zM513.5 88q-111.5 0 -190.5 79t-79 190.5t79 190.5t190.5 79t190 -79t78.5 -190.5t-78.5 -190.5t-190 -79z" />
    <glyph glyph-name="saishi" unicode="&#xe632;" 
d="M979 876q-3 14 -16 18q-14 4 -24 -7q-25 -26 -43 -40q-34 -27 -64 -35q-67 -16 -151 -3q-67 10 -142 40q-95 37 -184 37q-40 0 -76 -6q-124 -23 -223 -104q-17 -14 -8 -34q24 -54 98.5 -220.5t115.5 -257.5q21 -46 44.5 -98.5t52 -115.5t44.5 -98q5 -11 14.5 -32.5
t13.5 -31.5q8 -16 24 -15q17 2 21 18q2 8 -3 20q-122 273 -164 366q-5 10 -2 23q10 43 48 70q35 24 75 36q79 24 186 13q70 -7 127 25q51 28 96 86q72 92 114 223q8 24 26 110q2 8 0 13zM915 794q-20 -83 -69 -169q-38 -68 -85 -110q-42 -38 -88 -47q-20 -5 -54 -1
q-118 10 -202 -15q-63 -20 -108 -59q-20 -18 -34 -42q-4 10 -12 28t-11 24q-75 169 -152 341q-3 5 1 8q88 64 188 81q84 15 172 -8q16 -4 81 -28q75 -28 145 -37q85 -11 155 6q34 8 70 33q2 2 5 4q0 -2 -2 -9zM75 756l195 -436q1 3 3 8t11 19.5t20.5 27t32.5 26.5t45 21
q39 12 99 17.5t101 5.5h40l96 12q7 6 17.5 16.5t38 38.5t48.5 52t38.5 48t17.5 35q0 17 10 44.5t20 45.5l11 19l18 65q-68 -24 -141 -29q-106 -5 -234 29q-234 64 -296 25q-20 -13 -67.5 -26.5t-82.5 -28t-41 -35.5z" />
    <glyph glyph-name="meizhou" unicode="&#xe672;" 
d="M512 -126q-104 0 -198.5 40.5t-163 109t-109 163t-40.5 198.5t40.5 198.5t109 163t163 109t198.5 40.5t198.5 -40.5t163 -109t109 -163t40.5 -198.5t-40.5 -198.5t-109 -163t-163 -109t-198.5 -40.5v0zM512 847q-94 0 -179.5 -36.5t-147.5 -98.5t-98.5 -147.5
t-36.5 -179.5t36.5 -180t98.5 -147.5t147.5 -98.5t179.5 -37t179.5 37t147.5 98.5t98.5 147.5t36.5 180t-36.5 179.5t-98.5 147.5t-147.5 98.5t-179.5 36.5v0zM330 162q-6 4 -17 16q-20 15 -26 21q47 60 43 225v184h406v-366q4 -68 -65 -70h-72q-4 19 -14 48h66q39 -3 35 29
v316h-304v-147q0 -101 -11 -153q-10 -50 -41 -103zM419 478v40h89v45h50v-45h89v-40h-89v-41h105v-40h-259v40h104v41h-89zM429 226v136h207v-136h-207zM587 267v54h-110v-54h110z" />
    <glyph glyph-name="qinziyou" unicode="&#xe6e5;" 
d="M512 832q-122 0 -225 -60t-163 -163t-60 -225t60 -225t163 -163t225 -60t225 60t163 163t60 225t-60 225t-163 163t-225 60zM643 421q19 4 35 -7t20 -30t-6.5 -35.5t-29.5 -19.5q-19 -4 -38.5 6t-23.5 28q-4 19 10 37t33 21zM442 632q25 -2 41.5 -21.5t12.5 -43.5
q-5 -30 -21.5 -45t-40.5 -12q-25 4 -42 23t-14 43q2 26 20.5 42.5t43.5 13.5zM547 153q-3 0 -7 1t-6 2l-2 1q-7 3 -13 6.5t-14 10.5t-12 11l-16.5 16.5l-17.5 17.5q-23 23 -41 24t-23 -23v-5q0 -41 2 -57q1 -7 -5.5 -9t-10.5 3q-22 29 -38.5 88t-13.5 138q0 26 -31 2
q-20 -16 -49 -51q-14 -18 -19 -6q-5 14 13 53l7.5 12.5t20.5 27.5t34.5 35t49 26.5t63.5 11.5q96 -9 153 -124q5 -9 6 -13q2 -7 -5 -8t-14 6q-4 3 -16 14t-19.5 16.5t-18 9t-18 -5t-12.5 -29.5q-6 -44 9 -84t67 -105q3 -3 2.5 -8t-5.5 -5zM793 340q-7 -13 -47 -40
q-19 -13 -23 -35q-2 -12 8 -50q9 -37 2 -55q-2 -5 -6 -5.5t-6 3.5q-6 13 -9 19t-12 14t-22 11q-36 2 -37 -42q0 -5 -5 -6.5t-9 2.5q-13 13 -19 47q-2 13 -2 28.5t-1.5 22.5t-7.5 12q-2 2 -34 13t-44 25q-2 2 -2 4q0 7 7 7q7 1 52 -2.5t88 1.5q24 3 47 11t45 18t27 12
q6 2 10 -3t0 -12z" />
    <glyph glyph-name="zuixinzixun" unicode="&#xe62c;" horiz-adv-x="1448" 
d="M724.5 884q-101.5 0 -194 -39.5t-159.5 -106.5t-106.5 -159.5t-39.5 -193.5q0 -94 33 -178.5t93 -152.5q19 -27 50 -49q140 -119 323 -119q102 0 194.5 39.5t159 106t106 159t39.5 194t-39.5 194t-106 159.5t-159 106.5t-194 39.5zM910 185q-43 0 -106 -25t-126.5 -50
t-109.5 -25q-104 0 -207 36q-86 119 -86 264q0 91 35.5 174.5t95.5 143.5t143.5 95.5t175 35.5t174.5 -35.5t143 -95.5t95.5 -143.5t35.5 -174.5q0 -130 -70 -240q-93 40 -193 40zM1002 269h-46l-23 93l-23 -93h-47l-46 232h46l26 -129l21 82h46l21 -82l25 129h47zM632 269
v232h139v-47h-93v-46h93v-46h-93v-47h93v-46h-139zM539 269l-93 154v-154h-46v232h46l93 -155v155h46v-232h-46z" />
    <glyph glyph-name="xiaoxibaping" unicode="&#xe630;" 
d="M406 132h47v-31h-47v31zM632 250h95v-38h-95v38zM316 258h99v-23h-99v23zM630 117h97v38h-95q0 -19 -2 -38zM574 -59q35 5 70 15q-6 29 -12 59q47 -3 73 -3q22 0 22 24v23h-104q-10 -56 -49 -118zM325 -23v11h-22q11 -6 22 -11zM493 -32l13 20h-100v-39q52 -13 106 -13
q21 0 42 2q-30 17 -61 30zM282 132h43v-31h-43v31zM512 832q-91 0 -174 -35.5t-143.5 -95.5t-96 -143t-35.5 -174v0q0 -103 44.5 -193.5t121.5 -153.5h96v24h-107v111h107v24h-74v62h-61v49h61v20h65v-20h99v20h64v-20h57v-49h-57v-62h-73v-24h112v-111h-112v-24h111v-31
q37 59 37 182v127h252v-269q72 63 113 151t41 187v0q0 91 -35.5 174t-95.5 143t-143 95.5t-174 35.5zM441 340h-173v35h173v-35zM441 395h-146v35h146v-35zM757 340h-173v35h173v-35zM584 395v35h146v-35h-146zM825 395h-78v56h-194v-104h-82v104h-194v-56h-77v103h271v26
h-238v52h558v-52h-238v-26h272v-103z" />
    <glyph glyph-name="dasaijieshao" unicode="&#xe62d;" 
d="M846 -103l-332 209l-337 -209h-61v974h791v-974h-61zM177 810v-833l335 194l334 -194v833h-669zM329 475h365v-61h-365v61zM329 658h365v-61h-365v61z" />
    <glyph glyph-name="hongbao" unicode="&#xe680;" 
d="M680 562l-130 -59q-19 -9 -44.5 -9t-44.5 9l-132 59h-161v-518q0 -28 19.5 -48t47.5 -20h541q28 0 47.5 20t19.5 48v518h-163zM606 384l-67 -68v0h68q9 0 16 -7t7 -17t-7 -17t-16 -7h-78v-54h78q9 0 16 -7t7 -17t-7 -17t-16 -7h-78v-20q0 -10 -7 -17t-16.5 -7t-16.5 7
t-7 17v20h-78q-10 0 -17 7t-7 17t7 17t17 7h78v54h-78q-10 0 -17 7t-7 17t7 17t17 7h68v0l-68 68q-7 7 -7 17t7 17t17 7t17 -7l67 -68v-1l1 1l67 68q7 7 17 7t16.5 -7t6.5 -17t-7 -17zM168 562v74h-1v-74h1v0zM843 636v0v-74v0v74v0v0zM843 636v0v-74v0v74zM168 724v-16v0
v16v0zM843 636v0v0v0v0zM168 562v0v0v0v0zM505 562h-177h1h351v0h-175zM328 562h-160v0h161h-1zM843 562h-163v0h163v74v0v-74zM505 562v0v0zM168 562h160l-160 72v-72zM843 562v74l-163 -74h163zM680 636l163 74v14q0 28 -19.5 48t-47.5 20h-541q-28 0 -47.5 -20t-19.5 -48
v-16l160 -72h352zM522 565l158 71h-352l160 -71q6 -3 17 -3v0q11 0 17 3z" />
    <glyph glyph-name="jiahao" unicode="&#xe633;" 
d="M511.5 889q-101.5 0 -194 -40t-159.5 -106.5t-106.5 -159t-39.5 -194t39.5 -194.5t106.5 -159.5t159.5 -106.5t194 -40t194 40t159.5 106.5t106.5 159.5t39.5 194.5t-39.5 194t-106.5 159t-159.5 106.5t-194 40zM511 -58q-91 0 -173.5 35.5t-142.5 95.5t-95.5 142.5
t-35.5 173.5t35.5 173.5t95.5 142.5t143 95.5t173.5 35.5t173.5 -35.5t142.5 -95.5t95 -142.5t35.5 -173.5t-35.5 -173.5t-95 -142.5t-142.5 -95.5t-174 -35.5zM700 425h-153v153q0 10 -11.5 18t-23.5 8t-23.5 -8t-11.5 -18v-153h-154q-11 0 -19 -11.5t-8 -23.5t8 -23.5
t19 -11.5h154v-154q0 -11 11.5 -19t23.5 -8t23.5 8t11.5 19v154h153q10 0 18 11.5t8 23.5t-8 23.5t-18 11.5zM700 425z" />
    <glyph glyph-name="shipin" unicode="&#xe6ad;" 
d="M866 679h-25v-51h-77v51h-509v-51h-77v51h-26q-11 0 -18.5 -7.5t-7.5 -17.5v-565q0 -11 7.5 -18.5t18.5 -7.5h26v26h77v-26h509v26h77v-26h25q11 0 18.5 7.5t7.5 18.5v565q0 10 -7.5 17.5t-18.5 7.5zM255 166h-77v77h77v-77zM255 320h-77v77h77v-77zM255 474h-77v77h77
v-77zM627 354l-167 -97q-4 -2 -9 -2t-10 3q-9 5 -9 16v194q0 11 9 16.5t19 0.5l167 -97q11 -5 11 -17t-11 -17zM841 166h-77v77h77v-77zM841 320h-77v77h77v-77zM841 474h-77v77h77v-77z" />
    <glyph glyph-name="dashang" unicode="&#xe792;" 
d="M513.5 832q-91.5 0 -174.5 -35.5t-143 -95.5t-95.5 -143.5t-35.5 -174.5t35.5 -174t95.5 -143t143 -95.5t174.5 -35.5t174.5 35.5t143 95.5t95.5 143t35.5 174.5t-35.5 174.5t-95.5 143t-143 95.5t-174.5 35.5zM542 271q-10 -11 -21 -38q-6 -15 -23 -33.5t-33 -27.5
q-31 -18 -77 -34t-82 -19q-5 25 -22 46q51 2 97 15.5t73 33.5q30 25 37 74q31 -9 46 -7q8 0 9 -2.5t-4 -7.5zM347 352q27 -4 167 -4q157 0 183 4q-1 -19 -1 -37v-57q0 -14 2 -41h-53v96h-247v-104h-52q3 22 3 38v67q0 20 -2 38zM371 484q49 -3 149 -3q99 0 149 3
q-2 -22 -2 -51t2 -51q-41 2 -149 2q-110 0 -149 -2q2 23 2 51q0 30 -2 51zM704 117q-23 20 -70.5 44t-86.5 37l23 35q88 -30 168 -73zM765 457h-48v57h-392v-68h-49v108q36 -2 109 -3q-13 31 -32 52l50 20q21 -34 36 -48l-45 -24h101q0 71 -4 91q29 -5 59 -3q6 0 7 -2.5
t-4 -6.5q-10 -9 -10 -34v-45h52q22 39 31 80q24 -10 53 -13q16 -2 2 -11q-15 -9 -39 -56q73 1 123 3v-97zM418 446h204v-27h-204v27z" />
  </font>
</defs>
</svg>
